<svg width="17" height="17" viewBox="0 0 17 17" fill="none" xmlns="http://www.w3.org/2000/svg">
<path d="M15.4455 7.11275H14.875V7.08335H8.49996V9.91669H12.5031C11.9191 11.566 10.3498 12.75 8.49996 12.75C6.1529 12.75 4.24996 10.8471 4.24996 8.50002C4.24996 6.15296 6.1529 4.25002 8.49996 4.25002C9.58336 4.25002 10.569 4.65873 11.3195 5.32633L13.323 3.32281C12.0579 2.14379 10.3657 1.41669 8.49996 1.41669C4.58819 1.41669 1.41663 4.58825 1.41663 8.50002C1.41663 12.4118 4.58819 15.5834 8.49996 15.5834C12.4117 15.5834 15.5833 12.4118 15.5833 8.50002C15.5833 8.02508 15.5344 7.56148 15.4455 7.11275Z" fill="#FBC02D"/>
<path d="M2.2334 5.20308L4.56063 6.90981C5.19034 5.35077 6.71538 4.25002 8.50002 4.25002C9.58342 4.25002 10.5691 4.65873 11.3195 5.32633L13.3231 3.32281C12.058 2.14379 10.3658 1.41669 8.50002 1.41669C5.77931 1.41669 3.41986 2.95271 2.2334 5.20308Z" fill="#E53935"/>
<path d="M8.50003 15.5833C10.3297 15.5833 11.9921 14.8831 13.249 13.7445L11.0568 11.8894C10.3456 12.4281 9.46159 12.75 8.50003 12.75C6.65765 12.75 5.0933 11.5752 4.50397 9.93579L2.19409 11.7155C3.36638 14.0094 5.74709 15.5833 8.50003 15.5833Z" fill="#4CAF50"/>
<path d="M15.4456 7.11271L15.4399 7.08331H14.875H8.5V9.91665H12.5031C12.2226 10.7089 11.713 11.3921 11.0557 11.8897C11.056 11.8894 11.0564 11.8894 11.0567 11.889L13.249 13.7441C13.0939 13.8851 15.5833 12.0416 15.5833 8.49998C15.5833 8.02504 15.5345 7.56144 15.4456 7.11271Z" fill="#1565C0"/>
</svg>
